<svg xmlns="http://www.w3.org/2000/svg" xmlns:xlink="http://www.w3.org/1999/xlink" width="20" height="20" version="1.1" viewBox="0 0 20 20"><title>icon_inbox</title><g id="页面-1" fill="none" fill-rule="evenodd" stroke="none" stroke-width="1"><g id="Home" transform="translate(-278.000000, -849.000000)"><g id="Home导航" transform="translate(0.000000, 817.000000)"><g id="icon_inbox" transform="translate(279.720000, 33.599976)"><path id="Stroke-1" stroke="#000" stroke-width="2" d="M16.1357952,17.2338096 L1.0979472,17.2338096 C0.4916352,17.2338096 6.72e-05,16.7420736 6.72e-05,16.1357616 L6.72e-05,6.8384736 L1.6800672,1.0979136 C1.6800672,0.4916016 2.1716352,3.36e-05 2.7779472,3.36e-05 L14.4557952,3.36e-05 C15.0622752,3.36e-05 15.5538432,0.4916016 15.5538432,1.0979136 L17.2338432,6.8384736 L17.2338432,16.1357616 C17.2338432,16.7420736 16.7422752,17.2338096 16.1357952,17.2338096 Z"/><line id="Stroke-3" x1="0" x2="17.234" y1="6.838" y2="6.838" stroke="#2B2B2B" stroke-width="2"/><path id="Stroke-5" stroke="#2B2B2B" stroke-width="2" d="M11.0104008,6.3344736 C11.0104008,7.6562976 9.9387288,8.7279696 8.6169048,8.7279696 C7.2950808,8.7279696 6.2234088,7.6562976 6.2234088,6.3344736"/><path id="Fill-7" fill="#FFF" d="M10.6242024,5.9984736 C10.6242024,7.1071056 9.7254024,8.0057376 8.6169384,8.0057376 C7.5083064,8.0057376 6.6096744,7.1071056 6.6096744,5.9984736 C6.6096744,4.8898416 7.5083064,3.9912096 8.6169384,3.9912096 C9.7254024,3.9912096 10.6242024,4.8898416 10.6242024,5.9984736"/></g></g></g></g></svg>